<?xml version="1.0" standalone="no"?>
<!DOCTYPE svg PUBLIC "-//W3C//DTD SVG 20010904//EN" "http://www.w3.org/TR/2001/REC-SVG-20010904/DTD/svg10.dtd">
<!-- Created using Krita: https://krita.org -->
<svg xmlns="http://www.w3.org/2000/svg" 
    xmlns:xlink="http://www.w3.org/1999/xlink"
    xmlns:krita="http://krita.org/namespaces/svg/krita"
    xmlns:sodipodi="http://sodipodi.sourceforge.net/DTD/sodipodi-0.dtd"
    width="184.32pt"
    height="184.32pt"
    viewBox="0 0 184.32 184.32">
<defs/>
<path id="shape0" transform="translate(36.3600021760869, 12.9600007756349)" fill="#cccccc" fill-rule="evenodd" stroke="#77b3fe" stroke-width="0.72" stroke-linecap="square" stroke-linejoin="bevel" d="M37.3168 51.4175C36.7122 39.8482 41.6354 41.0551 48.0473 40.3571C48.6238 37.3882 48.2696 37.1701 48.4131 32.2245C35.4739 23.1724 41.4303 -0.727699 50.9832 0.0191478C61.0393 -0.740105 67.0823 21.2648 52.1229 33.146C52.8791 35.7035 52.1154 35.298 52.559 40.3571C60.3405 40.3633 62.2885 43.8742 62.1922 49.401C70.4648 59.7367 73.3466 60.3926 78.1658 69.472L107.065 76.1408C109.118 76.9403 112.758 77.5355 112.674 80.0445C112.771 84.4477 111.696 84.0416 108.04 82.9848L76.5806 76.6288C69.784 67.4263 66.8489 68.4573 61.3385 57.1104L63.6553 101.189L68.2889 130.142L69.0205 164.624L63.1675 164.624L60.9726 129.166L50.9832 98.9122L44.633 128.19L46.584 165.6L38.0484 164.949L38.0484 127.864L39.0239 97.2857L39.2678 64.1045L23.6598 82.9848L5.97493 85.8601C3.77254 85.7523 1.28572 87.0357 0 82.4444C0.21197 78.2161 3.34973 79.0836 5.54382 76.8891C11.0336 75.8788 14.921 72.1287 20.0017 74.189L37.3168 51.4175"/>
</svg>
