<?xml version="1.0" standalone="no"?>
<!DOCTYPE svg PUBLIC "-//W3C//DTD SVG 20010904//EN" "http://www.w3.org/TR/2001/REC-SVG-20010904/DTD/svg10.dtd">
<!-- Created using Krita: https://krita.org -->
<svg xmlns="http://www.w3.org/2000/svg" 
    xmlns:xlink="http://www.w3.org/1999/xlink"
    xmlns:krita="http://krita.org/namespaces/svg/krita"
    xmlns:sodipodi="http://sodipodi.sourceforge.net/DTD/sodipodi-0.dtd"
    width="184.32pt"
    height="184.32pt"
    viewBox="0 0 184.32 184.32">
<defs/>
<path id="shape0" transform="translate(48.7256928254752, 12.9600007756349)" fill="#cccccc" fill-rule="evenodd" stroke="#77b3fe" stroke-width="0.72" stroke-linecap="square" stroke-linejoin="bevel" d="M26.3343 47.52C26.0898 39.3706 29.2697 41.0551 35.6816 40.3571C36.2581 37.3882 35.9039 37.1701 36.0474 32.2245C23.1082 23.1724 29.0646 -0.727699 38.6175 0.0191478C48.6736 -0.740105 54.7166 21.2648 39.7572 33.146C40.5134 35.7035 39.7497 35.298 40.1933 40.3571C47.9748 40.3633 49.4707 41.6332 48.8343 47.88C55.4869 54.4357 57.3351 62.9206 62.1543 72L73.4188 80.096C75.4717 80.8955 79.6978 84.431 77.4543 86.04C75.2111 90.0832 73.0099 86.0167 69.3543 84.96L58.5543 76.5C51.7577 67.2976 54.4832 68.4573 48.9728 57.1104L51.2896 101.189L67.6075 120.174L57.4252 153.521L51.8249 149.703L57.9343 123.992L38.6175 98.9122L43.4343 127.556L34.2183 165.6L25.6827 164.949L33.4967 127.302L26.6582 97.2857L26.1543 59.4L9.59431 71.28L18.2343 81C16.0319 80.8922 25.1 85.7712 21.2943 87.84C18.2663 90.8117 17.8402 87.6945 12.6543 84.24C9.50409 82.1497 -3.94642 67.9597 1.13431 70.02Z"/>
</svg>
