<?xml version="1.0" standalone="no"?>
<!DOCTYPE svg PUBLIC "-//W3C//DTD SVG 20010904//EN" "http://www.w3.org/TR/2001/REC-SVG-20010904/DTD/svg10.dtd">
<!-- Created using Krita: https://krita.org -->
<svg xmlns="http://www.w3.org/2000/svg" 
    xmlns:xlink="http://www.w3.org/1999/xlink"
    xmlns:krita="http://krita.org/namespaces/svg/krita"
    xmlns:sodipodi="http://sodipodi.sourceforge.net/DTD/sodipodi-0.dtd"
    width="184.32pt"
    height="184.32pt"
    viewBox="0 0 184.32 184.32">
<defs/>
<path id="shape0" transform="translate(52.9200009234117, 12.9600007756349)" fill="#cccccc" fill-rule="evenodd" stroke="#77b3fe" stroke-width="0.72" stroke-linecap="square" stroke-linejoin="bevel" d="M22.14 47.52C21.8955 39.3706 25.0754 41.0551 31.4873 40.3571C32.0638 37.3882 31.7096 37.1701 31.8531 32.2245C18.9139 23.1724 24.8703 -0.727699 34.4232 0.0191478C44.4793 -0.740105 50.5223 21.2648 35.5629 33.146C36.3191 35.7035 35.5554 35.298 35.999 40.3571C43.7805 40.3633 45.2764 41.6332 44.64 47.88C51.2926 54.4357 51.5208 61.4806 52.11 70.38L61.65 68.85C63.7029 69.6495 67.0434 65.531 68.49 69.12C69.5768 71.9932 66.3856 71.8867 63.27 73.35L50.04 79.2C43.2434 69.9976 50.2889 68.4573 44.7785 57.1104L47.0953 101.189L51.66 130.5L46.62 165.24L39.24 165.06L42.3 129.96L34.4232 98.9122L26.46 128.34L5.76 148.68L0 142.38L21.06 125.1L22.4639 97.2857L22.68 55.35L25.83 73.08L35.37 76.23C33.1676 76.1222 41.2457 79.3813 37.44 81.45C34.412 84.4217 36.4159 85.8045 31.23 82.35C28.0798 80.2597 9.13928 72.0997 14.22 74.16Z"/>
</svg>
